<svg width="572" height="122" viewBox="0 0 572 122" fill="none" xmlns="http://www.w3.org/2000/svg">
<path d="M0.775879 19.0225C0.775879 8.7518 9.1019 0.425781 19.3726 0.425781H103.686C113.957 0.425781 122.283 8.7518 122.283 19.0225V103.336C122.283 113.607 113.957 121.933 103.686 121.933H19.3726C9.1019 121.933 0.775879 113.607 0.775879 103.336V19.0225Z" fill="#6320FF"/>
<path d="M86.0636 48.3978L85.063 51.3934L87.8928 52.8052L88.8913 49.8056L86.0636 48.3978ZM50.1455 33.772L48.7316 36.5997L51.7313 37.5983L53.1452 34.7705L50.1455 33.772ZM35.1698 69.4752L34.1631 72.4707L36.9909 73.8867L37.9955 70.8931L35.1698 69.4752ZM71.227 84.6637L69.8192 87.4935L72.8168 88.49L74.2246 85.6581L71.227 84.6637Z" fill="black"/>
<path fill-rule="evenodd" clip-rule="evenodd" d="M85.0628 51.3936L86.0634 48.3981L79.039 44.9053C78.4511 44.6106 77.9739 44.1341 77.6783 43.5467L74.2305 36.6409L72.8187 33.8131L66.9831 22.1296C66.4719 21.1058 65.6855 20.2446 64.7122 19.6427C63.7389 19.0408 62.6172 18.7219 61.4728 18.7219C60.3284 18.7219 59.2067 19.0408 58.2334 19.6427C57.2601 20.2446 56.4737 21.1058 55.9625 22.1296L50.1453 33.7784L53.145 34.7769L58.7616 23.5231C59.0132 23.0193 59.4001 22.5956 59.879 22.2995C60.3578 22.0034 60.9097 21.8465 61.4728 21.8465C62.0358 21.8465 62.5877 22.0034 63.0666 22.2995C63.5455 22.5956 63.9324 23.0193 64.1839 23.5231L69.819 34.8158L71.2309 37.6456L74.8791 44.9503C75.4792 46.1448 76.4497 47.1131 77.6455 47.7106L85.0628 51.3936ZM66.9795 100.221L72.8171 88.4901L69.8195 87.4957L64.1865 98.8272C63.9356 99.3326 63.5486 99.7579 63.069 100.055C62.5895 100.352 62.0365 100.51 61.4723 100.51C60.9081 100.51 60.355 100.352 59.8755 100.055C59.396 99.7579 59.009 99.3326 58.7581 98.8272L53.1434 87.5325L51.7357 84.7027L48.0649 77.3182C47.4671 76.1232 46.4998 75.1531 45.3067 74.5518L37.9958 70.8933L36.983 73.8888L43.8989 77.3509C44.4858 77.6457 44.9616 78.1223 45.2555 78.7095L48.734 85.7074L50.1397 88.5372L55.9487 100.221C56.4594 101.247 57.2461 102.11 58.2204 102.713C59.1948 103.316 60.3181 103.636 61.4641 103.636C62.6101 103.636 63.7334 103.316 64.7077 102.713C65.682 102.11 66.4688 101.247 66.9795 100.221ZM103.962 61.1266C103.965 62.273 103.646 63.3971 103.043 64.3717C102.439 65.3463 101.575 66.1324 100.547 66.641L88.9007 72.4398L86.0729 73.8496L79.0506 77.3505C78.4618 77.6467 77.984 78.1245 77.6878 78.7133L74.2299 85.6702L71.2343 84.6655L74.8846 77.3239C75.4839 76.1244 76.456 75.1515 77.6551 74.5514L85.0785 70.8561L87.9063 69.4463L99.1601 63.8419C99.6649 63.5908 100.09 63.2038 100.387 62.7245C100.683 62.2452 100.841 61.6925 100.841 61.1287C100.841 60.5649 100.683 60.0122 100.387 59.5329C100.09 59.0536 99.6649 58.6666 99.1601 58.4155L87.9063 52.807L88.9048 49.8074L100.568 55.6143C101.592 56.1245 102.453 56.9112 103.053 57.8855C103.653 58.8597 103.968 59.9825 103.962 61.1266ZM48.0644 44.9451L51.7311 37.5994L48.7314 36.6009L45.2632 43.5517C44.9695 44.1372 44.4953 44.6128 43.9107 44.9083L37.0009 48.3519L34.1751 49.7678L22.4998 55.6116C21.4771 56.1236 20.6171 56.9101 20.0161 57.8831C19.415 58.8561 19.0967 59.9772 19.0967 61.1209C19.0967 62.2646 19.415 63.3857 20.0161 64.3587C20.6171 65.3317 21.4771 66.1182 22.4998 66.6301L34.1629 72.4678L35.1696 69.4722L23.9014 63.831C23.3988 63.5791 22.9761 63.1922 22.6808 62.7138C22.3854 62.2354 22.2289 61.6842 22.2289 61.1219C22.2289 60.5596 22.3854 60.0085 22.6808 59.53C22.9761 59.0516 23.3988 58.6648 23.9014 58.4128L35.1757 52.7757L38.0035 51.3577L45.3103 47.7012C46.4999 47.1013 47.4653 46.1351 48.0644 44.9451Z" fill="white"/>
<path d="M48.7414 85.7044L36.7981 89.7169C36.2634 89.8964 35.6893 89.923 35.1403 89.794C34.5913 89.6649 34.0892 89.3852 33.6905 88.9863C33.2919 88.5874 33.0124 88.0851 32.8836 87.5361C32.7548 86.987 32.7818 86.4129 32.9615 85.8783L36.9904 73.8859L37.9951 70.8924L40.61 63.117C41.0305 61.8489 41.0305 60.479 40.61 59.2109L38.0032 51.3558L35.1755 52.7717L37.6431 60.189C37.8498 60.8128 37.8498 61.4865 37.6431 62.1103L35.1693 69.4764L34.1626 72.472L29.9946 84.8819C29.6843 85.8075 29.5982 86.7935 29.7433 87.7589C29.8885 88.7243 30.2607 89.6414 30.8294 90.4349C31.3981 91.2284 32.1471 91.8755 33.0147 92.323C33.8823 92.7705 34.8438 93.0057 35.82 93.0092C36.4921 93.0075 37.1595 92.8976 37.7966 92.6838L50.1471 88.5342L48.7414 85.7044ZM93.0671 84.8716L88.9011 72.4393L86.0733 73.8491L90.1001 85.864C90.2796 86.3987 90.3063 86.9728 90.1772 87.5218C90.0481 88.0708 89.7684 88.5729 89.3695 88.9715C88.9706 89.3702 88.4684 89.6497 87.9193 89.7785C87.3702 89.9073 86.7961 89.8803 86.2616 89.7006L74.2241 85.6656L71.2265 84.6629L63.4839 82.0684C62.2123 81.6438 60.8371 81.6438 59.5655 82.0684L51.737 84.6977L53.1427 87.5255L60.562 85.0353C61.1875 84.8266 61.8639 84.8266 62.4895 85.0353L69.8188 87.4907L72.8164 88.4892L85.2692 92.6613C86.3554 93.0249 87.5215 93.0784 88.6365 92.816C89.7514 92.5535 90.7712 91.9854 91.5811 91.1754C92.3911 90.3654 92.9592 89.3457 93.2217 88.2307C93.4842 87.1158 93.4306 85.9497 93.0671 84.8635V84.8716ZM91.5324 31.1521C90.7252 30.3391 89.7062 29.7688 88.5911 29.5058C87.4761 29.2429 86.3096 29.2979 85.2242 29.6646L72.8245 33.806L74.2364 36.6338L86.2125 32.6295C86.7464 32.4512 87.3194 32.4252 87.8672 32.5543C88.4151 32.6835 88.9161 32.9626 89.3142 33.3605C89.7123 33.7584 89.9918 34.2593 90.1212 34.8071C90.2506 35.3549 90.2249 35.9279 90.0469 36.4619L86.0651 48.393L85.0646 51.3885L82.466 59.1639C82.0435 60.4323 82.0435 61.8036 82.466 63.072L85.0707 70.8474L87.8985 69.4396L85.4329 62.094C85.2268 61.4694 85.2268 60.7951 85.4329 60.1706L87.8883 52.8045L88.8868 49.8048L93.0139 37.4584C93.3795 36.3736 93.4345 35.2083 93.1727 34.0939C92.911 32.9796 92.3428 31.9606 91.5324 31.1521ZM69.8188 34.8045L62.5079 37.2456C61.886 37.4511 61.2145 37.4511 60.5927 37.2456L53.1447 34.7677L50.1451 33.7692L37.8682 29.6769C36.7824 29.3161 35.6177 29.265 34.5044 29.5291C33.3912 29.7933 32.3736 30.3623 31.5656 31.1724C30.7577 31.9824 30.1914 33.0016 29.9301 34.1155C29.6689 35.2294 29.7231 36.394 30.0867 37.4788L34.179 49.77L37.0068 48.3561L33.0577 36.4885C32.8807 35.955 32.8556 35.3829 32.9851 34.836C33.1146 34.2891 33.3937 33.7889 33.7911 33.3915C34.1886 32.9941 34.6887 32.715 35.2356 32.5855C35.7825 32.456 36.3547 32.4811 36.8881 32.6581L48.7312 36.599L51.7308 37.5975L59.6126 40.2166C60.8748 40.6343 62.238 40.6343 63.5003 40.2166L71.2306 37.6364L69.8188 34.8045Z" fill="white"/>
<path d="M545.599 78.4398C545.743 81.0942 546.819 83.1748 548.971 84.6814C551.052 86.188 553.85 86.9054 557.293 86.9054C560.307 86.9054 562.746 86.2597 564.755 84.9684C566.692 83.677 567.696 82.0269 567.696 79.8746C567.696 78.2245 567.194 76.9332 566.261 76.0005C565.329 75.0679 564.109 74.4222 562.674 73.9917C561.167 73.5613 559.159 73.2025 556.719 72.7721C553.634 72.3416 551.123 71.9112 549.258 71.3372C547.321 70.7633 545.743 69.8306 544.523 68.5393C543.232 67.2479 542.658 65.4543 542.658 63.1586C542.658 61.1498 543.232 59.3562 544.38 57.7778C545.528 56.1995 547.178 54.9799 549.186 54.119C551.195 53.2581 553.563 52.7559 556.145 52.7559C560.307 52.7559 563.678 53.6885 566.261 55.5538C568.844 57.4191 570.351 60.0736 570.709 63.5173H567.05C566.692 61.2215 565.544 59.3562 563.607 57.9931C561.67 56.63 559.23 55.9125 556.361 55.9125C553.348 55.9125 550.908 56.5582 549.043 57.8496C547.178 59.141 546.245 60.8628 546.245 62.8716C546.245 64.4499 546.675 65.6696 547.608 66.5305C548.541 67.3914 549.689 68.0371 551.052 68.324C552.343 68.6827 554.28 69.0415 556.863 69.3284C559.948 69.7589 562.531 70.3328 564.539 70.9785C566.548 71.6242 568.127 72.6286 569.418 73.9917C570.709 75.4266 571.355 77.2919 571.355 79.6594C571.355 82.8161 569.992 85.3988 567.266 87.2641C564.539 89.1294 561.239 90.0621 557.293 90.0621C552.702 90.0621 548.971 89.0577 546.245 87.0489C543.447 85.0401 542.012 82.1704 541.94 78.4398H545.599Z" fill="white"/>
<path d="M531.378 56.8455C533.817 59.5717 535.109 63.5176 535.109 68.8265V89.6319H531.378V69.0417C531.378 64.8807 530.445 61.724 528.724 59.5C526.93 57.3477 524.419 56.1998 521.262 56.1998C517.819 56.1998 515.093 57.4912 513.084 59.9304C511.075 62.3697 509.999 65.6698 509.927 69.8309V89.6319H506.268V69.0417C506.268 64.8807 505.335 61.724 503.542 59.5C501.748 57.3477 499.237 56.1998 496.009 56.1998C492.565 56.1998 489.767 57.5629 487.759 60.2891C485.678 63.0154 484.674 66.6742 484.674 71.1223V89.6319H481.086V53.2583H484.243L484.817 61.0783C485.75 58.639 487.256 56.6302 489.265 55.1236C491.274 53.617 493.713 52.8279 496.655 52.8279C499.524 52.8279 502.035 53.617 504.188 55.1954C506.268 56.7737 507.775 58.9978 508.636 61.9392C509.712 59.1412 511.362 56.9172 513.586 55.2671C515.738 53.6888 518.464 52.8279 521.693 52.8279C525.71 52.8279 528.939 54.191 531.378 56.8455Z" fill="white"/>
<path d="M475.238 53.2581V56.7735H472.871C468.925 56.7735 466.199 58.1366 464.692 60.791C463.114 63.4455 462.396 66.8892 462.396 71.1937V89.6316H458.737V53.2581H461.894L462.468 60.5041C463.329 58.28 464.62 56.4865 466.342 55.1951C468.064 53.9037 470.431 53.2581 473.588 53.2581H475.238Z" fill="white"/>
<path d="M424.786 87.6949C422.131 86.1165 420.05 83.9642 418.616 81.0945C417.109 78.2966 416.392 75.0681 416.392 71.4093C416.392 67.8221 417.109 64.5937 418.616 61.7957C420.05 58.9978 422.131 56.7737 424.786 55.1954C427.368 53.617 430.381 52.8279 433.825 52.8279C437.197 52.8279 440.21 53.617 442.865 55.1954C445.519 56.7737 447.6 58.9978 449.106 61.7957C450.541 64.5937 451.33 67.8221 451.33 71.4093C451.33 75.0681 450.541 78.2966 449.106 81.0945C447.6 83.9642 445.519 86.1165 442.865 87.6949C440.21 89.2732 437.197 90.0624 433.825 90.0624C430.381 90.0624 427.368 89.2732 424.786 87.6949ZM440.999 84.8252C443.08 83.5338 444.73 81.7402 445.878 79.3727C447.026 77.0769 447.6 74.4225 447.6 71.4093C447.6 68.4678 447.026 65.8133 445.878 63.5176C444.73 61.2218 443.08 59.3565 440.999 58.0651C438.847 56.7737 436.48 56.0563 433.825 56.0563C431.099 56.0563 428.731 56.7737 426.651 58.0651C424.57 59.3565 422.992 61.2218 421.844 63.5176C420.696 65.8133 420.122 68.4678 420.122 71.4093C420.122 74.4225 420.696 77.0769 421.844 79.3727C422.992 81.7402 424.57 83.5338 426.651 84.8252C428.731 86.1165 431.099 86.7622 433.825 86.7622C436.48 86.7622 438.847 86.1165 440.999 84.8252Z" fill="white"/>
<path d="M384.633 39.4119H414.478V42.999H388.507V62.8718H410.173V66.4589H388.507V89.6318H384.633V39.4119Z" fill="white"/>
<path d="M354.652 56.343C357.378 59.0693 358.813 63.4456 358.813 69.6154V89.6317H348.697V70.1894C348.697 63.876 346.186 60.6476 341.236 60.6476C338.581 60.6476 336.573 61.5803 335.138 63.3021C333.703 65.0956 332.985 67.6066 332.985 70.7633V89.6317H322.87V52.7559H331.694L332.627 57.3474C333.918 55.7691 335.425 54.5495 337.29 53.6886C339.083 52.8276 341.308 52.3254 344.034 52.3254C348.338 52.3254 351.854 53.6885 354.652 56.343Z" fill="white"/>
<path d="M282.044 61.2933C283.623 58.4236 285.775 56.2713 288.573 54.693C291.371 53.1146 294.599 52.3254 298.33 52.3254C302.061 52.3254 305.289 53.1146 308.159 54.5495C311.028 55.9843 313.252 58.0649 314.831 60.7193C316.409 63.3738 317.27 66.4588 317.342 70.0459C317.342 71.3373 317.198 72.4852 317.055 73.4896H290.295V73.7765C290.51 76.5027 291.371 78.5833 292.877 80.0899C294.312 81.6682 296.393 82.3857 298.976 82.3857C300.984 82.3857 302.706 81.9552 304.069 81.0943C305.432 80.2334 306.365 78.8703 306.796 77.1484H316.768C316.337 79.5877 315.405 81.8117 313.97 83.7488C312.463 85.7576 310.526 87.2642 308.087 88.412C305.648 89.5599 302.85 90.0621 299.693 90.0621C295.532 90.0621 292.017 89.3447 289.003 87.7664C285.99 86.2598 283.694 84.1075 282.116 81.2378C280.538 78.3681 279.749 75.0679 279.749 71.2655C279.749 67.4632 280.466 64.163 282.044 61.2933ZM307.226 66.8892C306.867 64.6652 305.935 62.9434 304.428 61.7237C302.921 60.5041 301.056 59.8584 298.76 59.8584C296.536 59.8584 294.671 60.5041 293.164 61.7955C291.658 63.0869 290.797 64.7369 290.51 66.8892H307.226Z" fill="white"/>
<path d="M277.856 52.7559V61.9389H273.839C270.969 61.9389 268.817 62.7998 267.525 64.5217C266.162 66.2435 265.517 68.611 265.517 71.5525V89.6316H255.401V52.7559H264.584L265.517 58.2801C266.593 56.4865 267.956 55.1234 269.606 54.1907C271.184 53.2581 273.408 52.7559 276.135 52.7559H277.856Z" fill="white"/>
<path d="M220.131 87.7664C217.19 86.188 214.894 83.964 213.316 81.0943C211.737 78.2246 210.948 74.9244 210.948 71.1938C210.948 67.4632 211.737 64.163 213.316 61.2933C214.894 58.4236 217.19 56.2713 220.131 54.693C223.073 53.1146 226.516 52.3254 230.391 52.3254C234.265 52.3254 237.637 53.1146 240.578 54.693C243.519 56.2713 245.815 58.4236 247.394 61.2933C248.972 64.163 249.833 67.4632 249.833 71.1938C249.833 74.9962 248.972 78.2963 247.394 81.166C245.815 84.0357 243.519 86.188 240.578 87.7664C237.637 89.3447 234.265 90.0621 230.391 90.0621C226.516 90.0621 223.073 89.3447 220.131 87.7664ZM237.063 78.8703C238.713 76.9332 239.574 74.3505 239.574 71.1938C239.574 68.0371 238.713 65.5261 237.063 63.5173C235.413 61.5803 233.188 60.5759 230.391 60.5759C227.593 60.5759 225.369 61.5803 223.718 63.5173C222.068 65.5261 221.279 68.0371 221.279 71.1938C221.279 74.3505 222.068 76.9332 223.718 78.8703C225.369 80.8791 227.593 81.8117 230.391 81.8117C233.188 81.8117 235.413 80.8791 237.063 78.8703Z" fill="white"/>
<path d="M176.87 73.2745C177.014 75.7855 178.018 77.7943 179.884 79.3009C181.749 80.8075 184.188 81.5249 187.273 81.5249C189.784 81.5249 191.865 81.0227 193.443 79.9466C195.021 78.8704 195.882 77.3638 195.882 75.4268C195.882 74.1354 195.38 73.0593 194.519 72.2701C193.658 71.4809 192.367 70.8352 190.789 70.4048C189.21 69.9743 186.699 69.4004 183.399 68.6829C180.099 68.109 177.301 67.3198 175.077 66.3154C172.781 65.311 170.987 63.8762 169.553 61.9391C168.118 60.0021 167.472 57.4193 167.472 54.1909C167.472 51.3212 168.261 48.6667 169.84 46.3709C171.418 44.0752 173.642 42.2816 176.512 40.9902C179.381 39.6989 182.61 38.9814 186.197 38.9814C189.856 38.9814 193.156 39.6989 196.097 41.062C199.039 42.4251 201.335 44.2904 203.057 46.6579C204.778 49.0972 205.639 51.7517 205.711 54.7649H195.165C194.878 52.6126 194.017 50.8907 192.439 49.5994C190.86 48.308 188.78 47.5906 186.197 47.5906C183.758 47.5906 181.892 48.0928 180.458 49.0972C179.023 50.1016 178.305 51.5364 178.305 53.4017C178.305 54.7649 178.736 55.841 179.597 56.5584C180.458 57.2759 181.677 57.9215 183.256 58.352C184.834 58.7824 187.273 59.3564 190.573 59.9303C193.873 60.576 196.743 61.3652 199.039 62.2978C201.335 63.2305 203.128 64.6654 204.563 66.5307C205.998 68.396 206.715 70.907 206.715 74.0637C206.715 77.1486 205.854 79.8748 204.204 82.3141C202.483 84.7533 200.187 86.6186 197.174 87.9818C194.16 89.4166 190.86 90.0623 187.13 90.0623C183.112 90.0623 179.525 89.3449 176.368 87.91C173.212 86.4752 170.772 84.3946 169.05 81.8119C167.257 79.2291 166.324 76.3594 166.324 73.131L176.87 73.2745Z" fill="white"/>
</svg>
