<svg width="436" height="436" viewBox="0 0 436 436" fill="none" xmlns="http://www.w3.org/2000/svg">
<path d="M0.419434 66.9809C0.419434 30.1873 30.2466 0.360107 67.0402 0.360107H369.085C405.878 0.360107 435.705 30.1873 435.705 66.9809V369.025C435.705 405.819 405.878 435.646 369.085 435.646H67.0402C30.2466 435.646 0.419434 405.819 0.419434 369.025V66.9809Z" fill="#6320FF"/>
<path d="M305.953 172.215L302.369 182.946L312.506 188.004L316.083 177.258L305.953 172.215ZM177.28 119.819L172.215 129.95L182.961 133.527L188.026 123.396L177.28 119.819ZM123.631 247.722L120.025 258.454L130.155 263.526L133.754 252.802L123.631 247.722ZM252.803 302.134L247.759 312.271L258.498 315.841L263.541 305.696L252.803 302.134Z" fill="black"/>
<path fill-rule="evenodd" clip-rule="evenodd" d="M302.369 182.947L305.953 172.216L280.789 159.704C278.683 158.648 276.974 156.941 275.914 154.836L263.563 130.097L258.505 119.967L237.6 78.1121C235.769 74.4443 232.952 71.3591 229.465 69.2028C225.978 67.0465 221.96 65.9043 217.86 65.9043C213.76 65.9043 209.742 67.0465 206.255 69.2028C202.768 71.3591 199.951 74.4443 198.12 78.1121L177.28 119.842L188.026 123.42L208.148 83.1039C209.049 81.2994 210.435 79.7815 212.15 78.7206C213.866 77.6597 215.843 77.0978 217.86 77.0978C219.877 77.0978 221.854 77.6597 223.57 78.7206C225.285 79.7815 226.671 81.2994 227.572 83.1039L247.76 123.559L252.817 133.696L265.887 159.865C268.037 164.144 271.513 167.613 275.797 169.753L302.369 182.947ZM237.587 357.865L258.5 315.842L247.761 312.28L227.582 352.874C226.683 354.684 225.296 356.208 223.578 357.273C221.86 358.338 219.879 358.902 217.858 358.902C215.837 358.902 213.856 358.338 212.138 357.273C210.42 356.208 209.034 354.684 208.135 352.874L188.021 312.411L182.978 302.274L169.828 275.82C167.686 271.539 164.221 268.063 159.947 265.909L133.756 252.803L130.128 263.534L154.903 275.937C157.006 276.993 158.71 278.7 159.763 280.804L172.224 305.873L177.26 316.011L198.07 357.865C199.9 361.541 202.718 364.633 206.209 366.794C209.699 368.956 213.723 370.101 217.829 370.101C221.934 370.101 225.958 368.956 229.449 366.794C232.939 364.633 235.758 361.541 237.587 357.865ZM370.075 217.815C370.084 221.922 368.942 225.949 366.78 229.44C364.618 232.932 361.521 235.748 357.841 237.57L316.118 258.343L305.988 263.394L280.831 275.935C278.721 276.996 277.01 278.708 275.949 280.817L263.561 305.74L252.83 302.141L265.907 275.84C268.053 271.543 271.536 268.058 275.832 265.908L302.425 252.67L312.555 247.619L352.871 227.542C354.679 226.642 356.201 225.256 357.265 223.539C358.328 221.822 358.892 219.842 358.892 217.822C358.892 215.802 358.328 213.823 357.265 212.106C356.201 210.389 354.679 209.002 352.871 208.103L312.555 188.011L316.132 177.265L357.914 198.068C361.583 199.895 364.667 202.714 366.816 206.204C368.965 209.694 370.094 213.716 370.075 217.815ZM169.826 159.846L182.961 133.531L172.215 129.954L159.791 154.854C158.738 156.952 157.04 158.656 154.946 159.714L130.192 172.051L120.069 177.123L78.2432 198.058C74.5795 199.892 71.4985 202.71 69.3454 206.195C67.1922 209.681 66.0518 213.697 66.0518 217.794C66.0518 221.892 67.1922 225.908 69.3454 229.393C71.4985 232.879 74.5795 235.697 78.2432 237.531L120.025 258.444L123.631 247.712L83.2643 227.503C81.4636 226.601 79.9495 225.215 78.8913 223.501C77.8332 221.787 77.2728 219.812 77.2728 217.798C77.2728 215.784 77.8332 213.809 78.8913 212.095C79.9495 210.381 81.4636 208.996 83.2643 208.093L123.653 187.899L133.783 182.819L159.959 169.72C164.221 167.571 167.68 164.109 169.826 159.846Z" fill="white"/>
<path d="M172.252 305.863L129.466 320.237C127.55 320.88 125.494 320.975 123.527 320.513C121.56 320.051 119.761 319.049 118.333 317.62C116.905 316.191 115.904 314.391 115.443 312.424C114.981 310.457 115.078 308.401 115.722 306.486L130.155 263.524L133.754 252.8L143.122 224.946C144.628 220.403 144.628 215.495 143.122 210.952L133.783 182.812L123.653 187.885L132.493 214.456C133.233 216.691 133.233 219.105 132.493 221.339L123.631 247.728L120.024 258.459L105.093 302.916C103.981 306.232 103.673 309.764 104.193 313.223C104.713 316.681 106.046 319.967 108.084 322.809C110.121 325.652 112.804 327.97 115.912 329.573C119.02 331.176 122.465 332.019 125.962 332.031C128.369 332.025 130.76 331.632 133.043 330.866L177.287 316L172.252 305.863ZM331.044 302.879L316.12 258.342L305.989 263.392L320.415 306.434C321.058 308.35 321.153 310.407 320.691 312.373C320.229 314.34 319.227 316.139 317.798 317.567C316.369 318.995 314.569 319.996 312.602 320.458C310.635 320.919 308.579 320.822 306.664 320.178L263.541 305.723L252.802 302.132L225.065 292.837C220.51 291.316 215.583 291.316 211.028 292.837L182.983 302.256L188.019 312.387L214.598 303.466C216.838 302.718 219.262 302.718 221.503 303.466L247.759 312.262L258.498 315.839L303.109 330.785C307 332.088 311.177 332.279 315.172 331.339C319.166 330.399 322.819 328.364 325.721 325.462C328.622 322.56 330.657 318.907 331.598 314.913C332.538 310.919 332.346 306.741 331.044 302.85V302.879ZM325.546 110.435C322.654 107.522 319.004 105.479 315.009 104.537C311.015 103.595 306.836 103.792 302.947 105.106L258.527 119.942L263.585 130.072L306.488 115.727C308.4 115.088 310.453 114.995 312.416 115.458C314.378 115.92 316.173 116.92 317.6 118.346C319.026 119.771 320.027 121.566 320.49 123.528C320.954 125.491 320.862 127.543 320.224 129.456L305.96 172.198L302.376 182.929L293.066 210.784C291.553 215.328 291.553 220.24 293.066 224.784L302.398 252.639L312.528 247.596L303.695 221.281C302.957 219.043 302.957 216.628 303.695 214.39L312.491 188.002L316.068 177.256L330.853 133.026C332.163 129.14 332.36 124.965 331.422 120.973C330.485 116.981 328.449 113.331 325.546 110.435ZM247.759 123.519L221.568 132.264C219.341 133 216.935 133 214.708 132.264L188.026 123.387L177.28 119.81L133.299 105.15C129.41 103.857 125.237 103.674 121.249 104.62C117.261 105.567 113.615 107.605 110.721 110.507C107.827 113.409 105.798 117.06 104.862 121.05C103.926 125.041 104.12 129.213 105.423 133.099L120.083 177.131L130.213 172.066L116.066 129.552C115.432 127.64 115.342 125.591 115.806 123.632C116.27 121.672 117.27 119.881 118.694 118.457C120.117 117.033 121.909 116.033 123.868 115.57C125.827 115.106 127.877 115.196 129.788 115.83L172.215 129.947L182.961 133.524L211.196 142.907C215.718 144.403 220.602 144.403 225.124 142.907L252.817 133.664L247.759 123.519Z" fill="white"/>
</svg>
