<svg width="436" height="436" viewBox="0 0 436 436" fill="none" xmlns="http://www.w3.org/2000/svg">
<path d="M0.419434 66.9809C0.419434 30.1873 30.2466 0.360107 67.0402 0.360107H369.085C405.878 0.360107 435.705 30.1873 435.705 66.9809V369.025C435.705 405.819 405.878 435.646 369.085 435.646H67.0402C30.2466 435.646 0.419434 405.819 0.419434 369.025V66.9809Z" fill="#6320FF"/>
<path d="M343.9 152.446L338.768 167.811L353.282 175.052L358.404 159.667L343.9 152.446ZM159.673 77.429L152.421 91.9329L167.806 97.0544L175.058 82.5504L159.673 77.429ZM82.8607 260.554L77.6973 275.918L92.2012 283.181L97.3541 267.827L82.8607 260.554ZM267.801 338.457L260.581 352.972L275.956 358.083L283.176 343.558L267.801 338.457Z" fill="black"/>
<path fill-rule="evenodd" clip-rule="evenodd" d="M338.768 167.812L343.9 152.448L307.871 134.533C304.855 133.022 302.408 130.578 300.892 127.565L283.208 92.1445L275.966 77.6406L246.035 17.7149C243.413 12.4634 239.38 8.04627 234.388 4.95898C229.396 1.87169 223.642 0.236328 217.772 0.236328C211.903 0.236328 206.149 1.87169 201.157 4.95898C196.165 8.04627 192.132 12.4634 189.51 17.7149L159.673 77.4622L175.058 82.5836L203.867 24.8619C205.157 22.2782 207.141 20.105 209.597 18.586C212.054 17.0671 214.884 16.2625 217.772 16.2625C220.66 16.2625 223.491 17.0671 225.947 18.586C228.403 20.105 230.388 22.2782 231.678 24.8619L260.581 82.7831L267.822 97.2975L286.535 134.764C289.613 140.891 294.59 145.857 300.724 148.922L338.768 167.812ZM246.017 418.251L275.958 358.084L260.583 352.983L231.691 411.104C230.404 413.696 228.419 415.877 225.96 417.402C223.5 418.927 220.664 419.735 217.77 419.735C214.876 419.735 212.039 418.927 209.58 417.402C207.12 415.877 205.135 413.696 203.848 411.104L175.05 353.172L167.83 338.658L149.002 300.782C145.936 294.653 140.975 289.677 134.855 286.593L97.3568 267.828L92.1618 283.192L127.634 300.95C130.644 302.462 133.085 304.906 134.593 307.918L152.434 343.811L159.644 358.325L189.439 418.251C192.058 423.513 196.093 427.94 201.091 431.035C206.088 434.13 211.85 435.769 217.728 435.769C223.606 435.769 229.367 434.13 234.365 431.035C239.362 427.94 243.397 423.513 246.017 418.251ZM435.705 217.734C435.718 223.614 434.084 229.379 430.988 234.378C427.892 239.377 423.459 243.409 418.189 246.018L358.453 275.76L343.949 282.991L307.93 300.948C304.911 302.467 302.46 304.918 300.941 307.937L283.205 343.62L267.84 338.467L286.563 300.811C289.637 294.659 294.623 289.669 300.773 286.591L338.848 267.637L353.352 260.406L411.074 231.661C413.663 230.373 415.842 228.388 417.365 225.929C418.888 223.471 419.694 220.636 419.694 217.745C419.694 214.853 418.888 212.018 417.365 209.56C415.842 207.101 413.663 205.116 411.074 203.828L353.352 175.062L358.474 159.676L418.294 189.461C423.547 192.077 427.962 196.113 431.039 201.11C434.117 206.107 435.733 211.866 435.705 217.734ZM148.999 134.737L167.806 97.0608L152.421 91.9393L134.632 127.59C133.125 130.593 130.693 133.033 127.695 134.548L92.2536 152.211L77.7602 159.474L17.8765 189.447C12.6309 192.073 8.21981 196.107 5.137 201.098C2.0542 206.088 0.421387 211.838 0.421387 217.705C0.421387 223.571 2.0542 229.321 5.137 234.311C8.21981 239.302 12.6309 243.336 17.8765 245.962L77.6972 275.904L82.8607 260.539L25.0654 231.605C22.4872 230.313 20.3194 228.329 18.8044 225.875C17.2895 223.421 16.4871 220.594 16.4871 217.71C16.4871 214.826 17.2895 211.999 18.8044 209.545C20.3194 207.091 22.4872 205.107 25.0654 203.815L82.8922 174.901L97.3961 167.628L134.873 148.874C140.975 145.797 145.927 140.841 148.999 134.737Z" fill="white"/>
<path d="M152.473 343.796L91.2141 364.376C88.4718 365.297 85.5271 365.434 82.7112 364.772C79.8954 364.11 77.3202 362.675 75.2753 360.629C73.2305 358.583 71.7971 356.007 71.1366 353.191C70.476 350.375 70.6144 347.43 71.5362 344.688L92.2006 283.178L97.3536 267.824L110.766 227.943C112.922 221.439 112.922 214.413 110.766 207.909L97.3956 167.619L82.8917 174.881L95.5485 212.925C96.6084 216.124 96.6084 219.58 95.5485 222.78L82.8602 260.561L77.6967 275.926L56.3187 339.577C54.7271 344.325 54.2853 349.382 55.0297 354.334C55.7741 359.285 57.6833 363.989 60.6003 368.059C63.5174 372.129 67.3589 375.448 71.809 377.743C76.259 380.039 81.1904 381.245 86.1976 381.263C89.6446 381.254 93.0677 380.691 96.3356 379.594L159.683 358.31L152.473 343.796ZM379.823 339.525L358.455 275.758L343.951 282.989L364.605 344.615C365.526 347.357 365.663 350.302 365 353.117C364.338 355.933 362.904 358.509 360.858 360.553C358.812 362.598 356.236 364.032 353.42 364.692C350.603 365.353 347.659 365.214 344.917 364.293L283.176 343.597L267.801 338.454L228.088 325.147C221.566 322.969 214.513 322.969 207.99 325.147L167.837 338.633L175.047 353.136L213.101 340.364C216.31 339.294 219.779 339.294 222.988 340.364L260.58 352.958L275.955 358.08L339.827 379.479C345.398 381.343 351.379 381.618 357.098 380.272C362.817 378.925 368.047 376.012 372.201 371.857C376.356 367.703 379.27 362.473 380.616 356.754C381.962 351.035 381.688 345.054 379.823 339.483V339.525ZM371.952 63.9924C367.812 59.8224 362.585 56.897 356.866 55.5483C351.146 54.1996 345.163 54.4817 339.596 56.3627L275.997 77.6043L283.239 92.1082L344.665 71.5697C347.404 70.6556 350.342 70.5221 353.152 71.1844C355.962 71.8467 358.532 73.2785 360.574 75.3194C362.616 77.3602 364.049 79.9295 364.713 82.7391C365.377 85.5487 365.245 88.4877 364.332 91.2266L343.909 152.422L338.777 167.787L325.449 207.667C323.282 214.173 323.282 221.206 325.449 227.712L338.809 267.593L353.313 260.372L340.667 222.696C339.61 219.492 339.61 216.034 340.667 212.831L353.26 175.049L358.382 159.664L379.55 96.3376C381.425 90.7739 381.708 84.7967 380.365 79.0811C379.022 73.3655 376.108 68.1392 371.952 63.9924ZM260.58 82.7258L223.082 95.2461C219.893 96.3006 216.448 96.3006 213.259 95.2461L175.058 82.5368L159.672 77.4154L96.7029 56.4256C91.1339 54.5754 85.1596 54.313 79.4499 55.6678C73.7401 57.0226 68.5206 59.9411 64.3765 64.0961C60.2324 68.2511 57.3277 73.4782 55.9878 79.1915C54.648 84.9049 54.9261 90.8784 56.7909 96.4425L77.7807 159.485L92.2846 152.233L72.0295 91.363C71.1218 88.6269 70.9929 85.6923 71.6572 82.8871C72.3215 80.082 73.7528 77.5168 75.7913 75.4784C77.8297 73.44 80.3948 72.0087 83.2 71.3443C86.0051 70.68 88.9398 70.8089 91.6759 71.7166L152.42 91.9298L167.806 97.0512L208.232 110.485C214.706 112.627 221.698 112.627 228.172 110.485L267.822 97.2507L260.58 82.7258Z" fill="white"/>
</svg>
